<svg xmlns="http://www.w3.org/2000/svg" viewBox="0 0 1440 900" preserveAspectRatio="xMidYMax slice" role="img" aria-hidden="true">
 <defs>
  <linearGradient id="sky" x1="0" y1="0" x2="0.28" y2="1">
   <stop offset="0" stop-color="#08070A"/>
   <stop offset="0.3" stop-color="#14101A"/>
   <stop offset="0.56" stop-color="#33212A"/>
   <stop offset="0.76" stop-color="#6E3F2E"/>
   <stop offset="0.92" stop-color="#B06A38"/>
   <stop offset="1" stop-color="#D08B45"/>
  </linearGradient>
  <radialGradient id="sun" cx="0.74" cy="0.6" r="0.52">
   <stop offset="0" stop-color="#FFD8A0" stop-opacity="0.92"/>
   <stop offset="0.24" stop-color="#FFB672" stop-opacity="0.45"/>
   <stop offset="0.6" stop-color="#C9713C" stop-opacity="0.16"/>
   <stop offset="1" stop-color="#C9713C" stop-opacity="0"/>
  </radialGradient>
  <linearGradient id="farG" x1="0" y1="0" x2="0" y2="1">
   <stop offset="0" stop-color="#6B4534" stop-opacity="0.86"/>
   <stop offset="1" stop-color="#2C1E22" stop-opacity="0.95"/>
  </linearGradient>
  <linearGradient id="midG" x1="0" y1="0" x2="0" y2="1">
   <stop offset="0" stop-color="#4A2F2C"/>
   <stop offset="1" stop-color="#1B1419"/>
  </linearGradient>
  <linearGradient id="nearG" x1="0" y1="0" x2="0" y2="1">
   <stop offset="0" stop-color="#2A1C1F"/>
   <stop offset="1" stop-color="#0D0A0E"/>
  </linearGradient>
  <linearGradient id="foreG" x1="0" y1="0" x2="0" y2="1">
   <stop offset="0" stop-color="#100C10"/>
   <stop offset="1" stop-color="#060509"/>
  </linearGradient>
  <linearGradient id="rim" x1="0" y1="0" x2="1" y2="0">
   <stop offset="0" stop-color="#FFC489" stop-opacity="0"/>
   <stop offset="0.46" stop-color="#FFC489" stop-opacity="0.5"/>
   <stop offset="0.82" stop-color="#FFE0B4" stop-opacity="0.8"/>
   <stop offset="1" stop-color="#FFC489" stop-opacity="0.2"/>
  </linearGradient>
  <filter id="soft" x="-25%" y="-60%" width="150%" height="260%"><feGaussianBlur stdDeviation="26"/></filter>
  <filter id="soft2" x="-25%" y="-60%" width="150%" height="260%"><feGaussianBlur stdDeviation="9"/></filter>
  <filter id="grain">
   <feTurbulence type="fractalNoise" baseFrequency="0.82" numOctaves="3" stitchTiles="stitch"/>
   <feColorMatrix type="saturate" values="0"/>
  </filter>
  <clipPath id="nearClip"><path d="M0 660.6Q0 660.6 15 653.9Q30 647.2 45 640.2Q60 633.1 75 630.2Q90 627.3 105 631.7Q120 636.1 135 647.6Q150 659 165 663.5Q180 668 195 668Q210 668 225 668Q240 668 255 668Q270 668 285 668Q300 668 315 668Q330 668 345 668Q360 668 375 668Q390 668 405 668Q420 668 435 668Q450 668 465 725.4Q480 782.7 495 775.9Q510 769 525 767.1Q540 765.1 555 768.3Q570 771.5 585 777.1Q600 782.6 615 786.4Q630 790.2 645 790.2Q660 790.1 675 787.4Q690 784.6 705 782.1Q720 779.5 735 779.4Q750 779.3 765 780.9Q780 782.5 795 782.4Q810 782.3 825 776.7Q840 771 855 758.8Q870 746.5 885 730.2Q900 713.8 915 698.3Q930 682.7 945 672Q960 661.3 975 656.3Q990 651.4 1005 650Q1020 648.5 1035 647.3Q1050 646 1065 643.5Q1080 641 1095 638.7Q1110 636.4 1125 637.6Q1140 638.8 1155 645.7Q1170 652.5 1185 663.9Q1200 675.2 1215 687Q1230 698.8 1245 706.6Q1260 714.4 1275 716.1Q1290 717.8 1305 715.1Q1320 712.3 1335 709.3Q1350 706.4 1365 706.7Q1380 707 1395 711.2Q1410 715.4 1425 721.2L1440 726.9L1440 900L0 900Z"/></clipPath>
 </defs>

 <rect width="1440" height="900" fill="url(#sky)"/>
 <rect width="1440" height="900" fill="url(#sun)"/>

 <g filter="url(#soft)" opacity="0.5">
  <ellipse cx="1010" cy="392" rx="330" ry="34" fill="#FFCB93" opacity="0.42"/>
  <ellipse cx="620" cy="330" rx="290" ry="24" fill="#E9A46E" opacity="0.26"/>
  <ellipse cx="1230" cy="286" rx="220" ry="19" fill="#F5BE86" opacity="0.22"/>
  <ellipse cx="300" cy="430" rx="260" ry="22" fill="#C98457" opacity="0.2"/>
 </g>

 <path d="M0 590Q0 590 15 588.4Q30 586.8 45 585.4Q60 584 75 583.2Q90 582.3 105 582.2Q120 582.1 135 582.6Q150 583.1 165 583.8Q180 584.5 195 584.9Q210 585.2 225 584.8Q240 584.4 255 583.2Q270 581.9 285 580Q300 578 315 575.8Q330 573.5 345 571.7Q360 569.8 375 568.8Q390 567.9 405 568.3Q420 568.6 435 570.2Q450 571.8 465 574.4Q480 577 495 579.8Q510 582.6 525 584.9Q540 587.2 555 588.2Q570 589.2 585 588.5Q600 587.8 615 585.2Q630 582.6 645 578.5Q660 574.4 675 569.3Q690 564.2 705 558.9Q720 553.5 735 548.6Q750 543.6 765 539.5Q780 535.3 795 532Q810 528.6 825 525.9Q840 523.1 855 520.6Q870 518 885 515.3Q900 512.5 915 509.2Q930 505.9 945 502.1Q960 498.3 975 494.4Q990 490.4 1005 486.9Q1020 483.4 1035 481.1Q1050 478.7 1065 478.1Q1080 477.4 1095 478.8Q1110 480.2 1125 483.5Q1140 486.8 1155 491.6Q1170 496.3 1185 501.8Q1200 507.2 1215 512.5Q1230 517.8 1245 522.3Q1260 526.7 1275 529.9Q1290 533 1305 534.8Q1320 536.6 1335 537.4Q1350 538.2 1365 538.5Q1380 538.7 1395 539Q1410 539.3 1425 540.2L1440 541L1440 900L0 900Z" fill="url(#farG)" opacity="0.66"/>
 <path d="M0 638.5Q0 638.5 15 630.2Q30 621.9 45 614.6Q60 607.2 75 601.7Q90 596.2 105 592.3Q120 588.4 135 585.1Q150 581.8 165 577.8Q180 573.9 195 568.8Q210 563.8 225 558.3Q240 552.8 255 548.5Q270 544.2 285 542.9Q300 541.6 315 544.6Q330 547.6 345 554.7Q360 561.7 375 571.4Q390 581.1 405 591.3Q420 601.4 435 609.8Q450 618.3 465 624Q480 629.6 495 632.7Q510 635.8 525 637.6Q540 639.4 555 641.4Q570 643.4 585 646.6Q600 649.7 615 653.8Q630 657.9 645 661.8Q660 665.7 675 668Q690 670.3 705 670.2Q720 670 735 667.6Q750 665.1 765 661.9Q780 658.6 795 656.6Q810 654.6 825 655.4Q840 656.2 855 626.1Q870 596 885 596Q900 596 915 596Q930 596 945 596Q960 596 975 596Q990 596 1005 596Q1020 596 1035 596Q1050 596 1065 596Q1080 596 1095 596Q1110 596 1125 596Q1140 596 1155 596Q1170 596 1185 636.9Q1200 677.8 1215 670.8Q1230 663.7 1245 653.7Q1260 643.6 1275 632Q1290 620.3 1305 609.1Q1320 597.9 1335 589.3Q1350 580.8 1365 576.3Q1380 571.8 1395 571.3Q1410 570.7 1425 572.7L1440 574.6L1440 900L0 900Z" fill="url(#midG)"/>
 <g filter="url(#soft2)" opacity="0.55"><ellipse cx="880" cy="640" rx="520" ry="26" fill="#E0A26C" opacity="0.3"/></g>
 <path d="M0 660.6Q0 660.6 15 653.9Q30 647.2 45 640.2Q60 633.1 75 630.2Q90 627.3 105 631.7Q120 636.1 135 647.6Q150 659 165 663.5Q180 668 195 668Q210 668 225 668Q240 668 255 668Q270 668 285 668Q300 668 315 668Q330 668 345 668Q360 668 375 668Q390 668 405 668Q420 668 435 668Q450 668 465 725.4Q480 782.7 495 775.9Q510 769 525 767.1Q540 765.1 555 768.3Q570 771.5 585 777.1Q600 782.6 615 786.4Q630 790.2 645 790.2Q660 790.1 675 787.4Q690 784.6 705 782.1Q720 779.5 735 779.4Q750 779.3 765 780.9Q780 782.5 795 782.4Q810 782.3 825 776.7Q840 771 855 758.8Q870 746.5 885 730.2Q900 713.8 915 698.3Q930 682.7 945 672Q960 661.3 975 656.3Q990 651.4 1005 650Q1020 648.5 1035 647.3Q1050 646 1065 643.5Q1080 641 1095 638.7Q1110 636.4 1125 637.6Q1140 638.8 1155 645.7Q1170 652.5 1185 663.9Q1200 675.2 1215 687Q1230 698.8 1245 706.6Q1260 714.4 1275 716.1Q1290 717.8 1305 715.1Q1320 712.3 1335 709.3Q1350 706.4 1365 706.7Q1380 707 1395 711.2Q1410 715.4 1425 721.2L1440 726.9L1440 900L0 900Z" fill="url(#nearG)"/>
 <g clip-path="url(#nearClip)" fill="none" stroke="#F4D9BA" stroke-width="1">
  <path d="M0 678.6Q0 678.6 22.5 668.2Q45 657.7 67.5 651.5Q90 645.3 112.5 654.8Q135 664.2 157.5 675.1Q180 686 202.5 686Q225 686 247.5 686Q270 686 292.5 686Q315 686 337.5 686Q360 686 382.5 686Q405 686 427.5 686Q450 686 472.5 739.5Q495 793 517.5 788.1Q540 783.1 562.5 789.1Q585 795 607.5 801.6Q630 808.2 652.5 807Q675 805.7 697.5 801.6Q720 797.5 742.5 798.2Q765 798.8 787.5 799.6Q810 800.3 832.5 789.3Q855 778.3 877.5 755.1Q900 731.8 922.5 710.2Q945 688.5 967.5 679Q990 669.4 1012.5 667.5Q1035 665.5 1057.5 662.3Q1080 659 1102.5 656.7Q1125 654.4 1147.5 662.5Q1170 670.5 1192.5 688Q1215 705.5 1237.5 719Q1260 732.4 1282.5 733.1Q1305 733.7 1327.5 729.1Q1350 724.4 1372.5 726.4Q1395 728.4 1417.5 736.7L1440 744.9" opacity="0.2"/>
  <path d="M0 700.8Q0 700.8 22.5 691.2Q45 681.5 67.5 675.9Q90 670.2 112.5 679Q135 687.8 157.5 695.4Q180 703 202.5 703Q225 703 247.5 703Q270 703 292.5 703Q315 703 337.5 703Q360 703 382.5 703Q405 703 427.5 703Q450 703 472.5 755.8Q495 808.6 517.5 804Q540 799.4 562.5 804.9Q585 810.4 607.5 816.4Q630 822.4 652.5 821.3Q675 820.1 697.5 816.3Q720 812.5 742.5 813Q765 813.5 787.5 814Q810 814.5 832.5 804.2Q855 793.9 877.5 772.3Q900 750.8 922.5 730.7Q945 710.5 967.5 701.6Q990 692.6 1012.5 690.7Q1035 688.8 1057.5 685.7Q1080 682.6 1102.5 680.6Q1125 678.5 1147.5 686Q1170 693.5 1192.5 709.7Q1215 725.9 1237.5 738.3Q1260 750.8 1282.5 751.5Q1305 752.2 1327.5 748.1Q1350 743.9 1372.5 745.8Q1395 747.8 1417.5 755.5L1440 763.1" opacity="0.1"/>
  <path d="M0 722.9Q0 722.9 22.5 714.1Q45 705.3 67.5 700.3Q90 695.2 112.5 703.4Q135 711.5 157.5 729.6Q180 747.7 202.5 733.9Q225 720 247.5 720Q270 720 292.5 720Q315 720 337.5 720Q360 720 382.5 720Q405 720 427.5 782Q450 843.9 472.5 834Q495 824.1 517.5 820Q540 815.8 562.5 820.8Q585 825.7 607.5 831.2Q630 836.6 652.5 835.6Q675 834.5 697.5 831Q720 827.5 742.5 827.9Q765 828.2 787.5 828.5Q810 828.8 832.5 819.2Q855 809.6 877.5 789.7Q900 769.8 922.5 751.2Q945 732.6 967.5 724.2Q990 715.8 1012.5 713.9Q1035 712 1057.5 709.2Q1080 706.3 1102.5 704.5Q1125 702.6 1147.5 709.5Q1170 716.4 1192.5 731.3Q1215 746.2 1237.5 757.7Q1260 769.2 1282.5 770Q1305 770.7 1327.5 767.1Q1350 763.4 1372.5 765.3Q1395 767.2 1417.5 774.3L1440 781.3" opacity="0.1"/>
  <path d="M0 745Q0 745 22.5 737.1Q45 729.1 67.5 724.6Q90 720.1 112.5 727.6Q135 735.1 157.5 751.7Q180 768.2 202.5 752.6Q225 737 247.5 737Q270 737 292.5 737Q315 737 337.5 737Q360 737 382.5 737Q405 737 427.5 797.3Q450 857.5 472.5 848.6Q495 839.7 517.5 835.9Q540 832.1 562.5 836.6Q585 841 607.5 846Q630 850.9 652.5 849.9Q675 848.9 697.5 845.7Q720 842.5 742.5 842.7Q765 842.9 787.5 843Q810 843 832.5 834.1Q855 825.2 877.5 807Q900 788.8 922.5 771.8Q945 754.7 967.5 746.9Q990 739 1012.5 737.1Q1035 735.2 1057.5 732.6Q1080 730 1102.5 728.4Q1125 726.7 1147.5 733.1Q1170 739.4 1192.5 753Q1215 766.5 1237.5 777.1Q1260 787.6 1282.5 788.5Q1305 789.3 1327.5 786.2Q1350 783 1372.5 784.8Q1395 786.6 1417.5 793.1L1440 799.6" opacity="0.1"/>
  <path d="M0 767.2Q0 767.2 22.5 760.1Q45 752.9 67.5 749Q90 745.1 112.5 752Q135 758.8 157.5 773.8Q180 788.8 202.5 771.4Q225 754 247.5 754Q270 754 292.5 754Q315 754 337.5 754Q360 754 382.5 754Q405 754 427.5 812.5Q450 871 472.5 863.1Q495 855.2 517.5 851.9Q540 848.5 562.5 852.5Q585 856.4 607.5 860.8Q630 865.1 652.5 864.2Q675 863.3 697.5 860.4Q720 857.5 742.5 857.6Q765 857.6 787.5 857.5Q810 857.3 832.5 849.1Q855 840.8 877.5 824.3Q900 807.7 922.5 792.2Q945 776.7 967.5 769.5Q990 762.2 1012.5 760.4Q1035 758.5 1057.5 756.1Q1080 753.6 1102.5 752.2Q1125 750.8 1147.5 756.6Q1170 762.4 1192.5 774.7Q1215 786.9 1237.5 796.4Q1260 805.9 1282.5 806.8Q1305 807.8 1327.5 805.2Q1350 802.5 1372.5 804.3Q1395 806 1417.5 811.9L1440 817.8" opacity="0.1"/>
  <path d="M0 789.3Q0 789.3 22.5 783.1Q45 776.8 67.5 773.4Q90 770 112.5 776.3Q135 782.5 157.5 796Q180 809.4 202.5 821.6Q225 833.8 247.5 802.4Q270 771 292.5 771Q315 771 337.5 771Q360 771 382.5 830.2Q405 889.3 427.5 887Q450 884.6 472.5 877.7Q495 870.8 517.5 867.8Q540 864.8 562.5 868.3Q585 871.7 607.5 875.5Q630 879.3 652.5 878.5Q675 877.7 697.5 875.1Q720 872.5 742.5 872.4Q765 872.3 787.5 871.9Q810 871.5 832.5 864Q855 856.5 877.5 841.6Q900 826.7 922.5 812.8Q945 798.8 967.5 792.1Q990 785.4 1012.5 783.6Q1035 781.7 1057.5 779.5Q1080 777.3 1102.5 776.2Q1125 775 1147.5 780.2Q1170 785.4 1192.5 796.3Q1215 807.2 1237.5 815.8Q1260 824.3 1282.5 825.4Q1305 826.4 1327.5 824.2Q1350 822 1372.5 823.7Q1395 825.3 1417.5 830.7L1440 836" opacity="0.1"/>
  <path d="M0 811.5Q0 811.5 22.5 806.1Q45 800.6 67.5 797.8Q90 795 112.5 800.6Q135 806.1 157.5 818Q180 829.9 202.5 840.9Q225 851.8 247.5 819.9Q270 788 292.5 788Q315 788 337.5 788Q360 788 382.5 845Q405 902 427.5 900.1Q450 898.2 472.5 892.3Q495 886.3 517.5 883.8Q540 881.2 562.5 884.2Q585 887.1 607.5 890.4Q630 893.6 652.5 892.9Q675 892.2 697.5 889.9Q720 887.5 742.5 887.3Q765 887 787.5 886.4Q810 885.8 832.5 879Q855 872.1 877.5 858.9Q900 845.7 922.5 833.3Q945 820.8 967.5 814.7Q990 808.6 1012.5 806.8Q1035 804.9 1057.5 803Q1080 801 1102.5 800.1Q1125 799.1 1147.5 803.8Q1170 808.4 1192.5 818Q1215 827.6 1237.5 835.2Q1260 842.7 1282.5 843.8Q1305 844.9 1327.5 843.3Q1350 841.6 1372.5 843.2Q1395 844.7 1417.5 849.5L1440 854.3" opacity="0.1"/>
  <path d="M0 833.6Q0 833.6 22.5 829Q45 824.4 67.5 822.2Q90 819.9 112.5 824.9Q135 829.8 157.5 840.2Q180 850.5 202.5 860.2Q225 869.8 247.5 876Q270 882.1 292.5 843.6Q315 805 337.5 805Q360 805 382.5 859.9Q405 914.8 427.5 913.3Q450 911.7 472.5 906.8Q495 901.9 517.5 899.8Q540 897.6 562.5 900Q585 902.4 607.5 905.1Q630 907.8 652.5 907.2Q675 906.6 697.5 904.6Q720 902.5 742.5 902.1Q765 901.7 787.5 900.9Q810 900 832.5 893.9Q855 887.7 877.5 876.2Q900 864.7 922.5 853.8Q945 842.9 967.5 837.4Q990 831.8 1012.5 830Q1035 828.1 1057.5 826.4Q1080 824.6 1102.5 823.9Q1125 823.2 1147.5 827.3Q1170 831.3 1192.5 839.6Q1215 847.9 1237.5 854.5Q1260 861.1 1282.5 862.3Q1305 863.4 1327.5 862.3Q1350 861.1 1372.5 862.6Q1395 864.1 1417.5 868.3L1440 872.5" opacity="0.1"/>
  <path d="M0 855.8Q0 855.8 22.5 852Q45 848.2 67.5 846.6Q90 844.9 112.5 849.2Q135 853.4 157.5 862.3Q180 871.1 202.5 879.5Q225 887.8 247.5 893.4Q270 898.9 292.5 860.5Q315 822 337.5 871.1Q360 920.1 382.5 923.9Q405 927.6 427.5 926.5Q450 925.3 472.5 921.4Q495 917.4 517.5 915.7Q540 913.9 562.5 915.8Q585 917.7 607.5 919.9Q630 922 652.5 921.5Q675 921 697.5 919.3Q720 917.5 742.5 917Q765 916.4 787.5 915.4Q810 914.3 832.5 908.9Q855 903.4 877.5 893.6Q900 883.7 922.5 874.4Q945 865 967.5 860Q990 855 1012.5 853.2Q1035 851.4 1057.5 849.9Q1080 848.3 1102.5 847.8Q1125 847.3 1147.5 850.8Q1170 854.3 1192.5 861.3Q1215 868.2 1237.5 873.9Q1260 879.5 1282.5 880.8Q1305 882 1327.5 881.3Q1350 880.6 1372.5 882.1Q1395 883.5 1417.5 887.1L1440 890.7" opacity="0"/>
 </g>
 <path d="M0 660.6Q0 660.6 15 653.9Q30 647.2 45 640.2Q60 633.1 75 630.2Q90 627.3 105 631.7Q120 636.1 135 647.6Q150 659 165 663.5Q180 668 195 668Q210 668 225 668Q240 668 255 668Q270 668 285 668Q300 668 315 668Q330 668 345 668Q360 668 375 668Q390 668 405 668Q420 668 435 668Q450 668 465 725.4Q480 782.7 495 775.9Q510 769 525 767.1Q540 765.1 555 768.3Q570 771.5 585 777.1Q600 782.6 615 786.4Q630 790.2 645 790.2Q660 790.1 675 787.4Q690 784.6 705 782.1Q720 779.5 735 779.4Q750 779.3 765 780.9Q780 782.5 795 782.4Q810 782.3 825 776.7Q840 771 855 758.8Q870 746.5 885 730.2Q900 713.8 915 698.3Q930 682.7 945 672Q960 661.3 975 656.3Q990 651.4 1005 650Q1020 648.5 1035 647.3Q1050 646 1065 643.5Q1080 641 1095 638.7Q1110 636.4 1125 637.6Q1140 638.8 1155 645.7Q1170 652.5 1185 663.9Q1200 675.2 1215 687Q1230 698.8 1245 706.6Q1260 714.4 1275 716.1Q1290 717.8 1305 715.1Q1320 712.3 1335 709.3Q1350 706.4 1365 706.7Q1380 707 1395 711.2Q1410 715.4 1425 721.2L1440 726.9L1440 900L0 900Z" fill="none" stroke="url(#rim)" stroke-width="1.6" opacity="0.7"/>
 <path d="M0 821Q0 821 15 821.8Q30 822.5 45 823.5Q60 824.5 75 825.2Q90 825.9 105 825.9Q120 825.8 135 824.8Q150 823.7 165 821.8Q180 819.9 195 817.4Q210 814.9 225 812.5Q240 810 255 808.2Q270 806.4 285 805.9Q300 805.4 315 806.7Q330 807.9 345 811.1Q360 814.2 375 819.1Q390 824 405 830.2Q420 836.3 435 843.1Q450 849.9 465 856.4Q480 862.9 495 868.5Q510 874 525 877.9Q540 881.7 555 883.6Q570 885.4 585 885.2Q600 885 615 883.1Q630 881.2 645 878.1Q660 874.9 675 871.3Q690 867.6 705 864.2Q720 860.7 735 857.9Q750 855.1 765 853.4Q780 851.6 795 850.9Q810 850.2 825 850.4Q840 850.5 855 851Q870 851.4 885 851.6Q900 851.7 915 851.1Q930 850.5 945 848.7Q960 846.8 975 843.6Q990 840.4 1005 836Q1020 831.5 1035 826.4Q1050 821.2 1065 816Q1080 810.7 1095 806.1Q1110 801.4 1125 798.2Q1140 795 1155 793.7Q1170 792.4 1185 793.3Q1200 794.2 1215 797.2Q1230 800.2 1245 804.9Q1260 809.6 1275 815.5Q1290 821.3 1305 827.4Q1320 833.5 1335 839.1Q1350 844.7 1365 849.3Q1380 853.8 1395 856.8Q1410 859.8 1425 861.3L1440 862.8L1440 900L0 900Z" fill="url(#foreG)"/>

 <rect width="1440" height="900" filter="url(#grain)" opacity="0.3" style="mix-blend-mode:overlay"/>
</svg>
